<svg width="176" height="52" viewBox="0 0 176 52" fill="none" xmlns="http://www.w3.org/2000/svg">
<path fill-rule="evenodd" clip-rule="evenodd" d="M14.9543 2.5524C14.9543 1.91182 15.7288 1.59101 16.1818 2.04397L47.3413 33.2035C47.7942 33.6564 48.5687 33.3356 48.5687 32.695V19.2772C48.5687 18.8801 48.8907 18.5582 49.2878 18.5582H56.1173C56.118 18.5582 56.1185 18.5577 56.1185 18.557V18.557C56.1185 18.5561 56.1196 18.5555 56.1204 18.5561L63.4126 24.6192C63.9301 25.0494 63.6259 25.8911 62.953 25.8911H56.8375C56.4404 25.8911 56.1185 26.213 56.1185 26.6101L56.1185 50.9218C56.1185 51.5623 55.344 51.8831 54.891 51.4302L23.7315 20.2707C23.2786 19.8177 22.5041 20.1385 22.5041 20.7791V50.9218C22.5041 51.5623 21.7296 51.8831 21.2766 51.4302L0.210598 30.3641C-0.070199 30.0833 -0.0701993 29.6281 0.210597 29.3473L4.53223 25.0257C4.81302 24.7449 5.26828 24.7449 5.54908 25.0257L13.7269 33.2035C14.1798 33.6564 14.9543 33.3356 14.9543 32.695V2.5524ZM26.7939 0.958952C27.188 0.910299 27.547 1.19035 27.5956 1.58446L28.5533 9.34187C28.6357 10.0097 27.8376 10.4147 27.3472 9.95393L19.9398 2.99275C19.4958 2.57553 19.7395 1.82982 20.3441 1.75518L26.7939 0.958952Z" fill="url(#paint0_linear_18_1007)"/>
<path d="M69.9038 37.2759C69.7673 36.9075 69.2472 36.9048 69.1069 37.2718L65.4097 46.9415C65.3466 47.1063 65.1884 47.2152 65.012 47.2152H60.4897C60.2546 47.2152 60.0639 47.0246 60.0639 46.7894L60.0639 30.7207C60.0639 30.4856 60.2546 30.295 60.4897 30.295L63.8243 30.295C64.0594 30.295 64.25 30.4856 64.25 30.7207V36.5783C64.25 37.0604 64.925 37.1712 65.0792 36.7145L67.1484 30.5845C67.2068 30.4115 67.3691 30.295 67.5518 30.295H71.7999C71.9794 30.295 72.1396 30.4075 72.2004 30.5763L75.8232 40.6238C75.9603 41.004 76.5003 40.9972 76.6277 40.6137L79.9608 30.5864C80.0186 30.4124 80.1814 30.295 80.3648 30.295H84.5573C84.8539 30.295 85.0596 30.5907 84.9565 30.8688L78.996 46.9375C78.9341 47.1044 78.7748 47.2152 78.5968 47.2152H73.8835C73.7054 47.2152 73.5461 47.1044 73.4842 46.9374L69.9038 37.2759Z" fill="url(#paint1_linear_18_1007)"/>
<path d="M96.8045 47.2152C94.9281 47.2152 93.235 46.8162 91.7252 46.0182C90.2154 45.1986 89.0292 44.0986 88.1664 42.7182C87.3253 41.3163 86.8939 39.785 86.8723 38.1242C86.8939 36.4419 87.3361 34.9106 88.1988 33.5302C89.0831 32.1498 90.2801 31.0606 91.7899 30.2626C93.3212 29.4646 95.0251 29.0656 96.9016 29.0656C98.8427 29.0656 100.568 29.4646 102.078 30.2626C103.588 31.0606 104.752 32.1498 105.572 33.5302C106.413 34.9106 106.834 36.4419 106.834 38.1242C106.812 39.785 106.37 41.3163 105.507 42.7182C104.645 44.0986 103.447 45.1986 101.916 46.0182C100.406 46.8162 98.7025 47.2152 96.8045 47.2152ZM96.7074 43.3653C97.7427 43.3653 98.6701 43.1388 99.4897 42.6859C100.309 42.2114 100.946 41.5751 101.399 40.7771C101.873 39.9791 102.121 39.0948 102.143 38.1242C102.164 37.1321 101.959 36.237 101.528 35.439C101.097 34.641 100.482 34.0155 99.6838 33.5626C98.9074 33.0881 98.0015 32.8508 96.9663 32.8508C95.931 32.8508 95.0036 33.0881 94.184 33.5626C93.3644 34.0155 92.7173 34.6517 92.2428 35.4713C91.7683 36.2694 91.5203 37.1537 91.4987 38.1242C91.4772 39.0948 91.682 39.9791 92.1134 40.7771C92.5448 41.5751 93.1595 42.2114 93.9575 42.6859C94.7771 43.1388 95.6937 43.3653 96.7074 43.3653Z" fill="url(#paint2_linear_18_1007)"/>
<path d="M112.244 39.5801C112.003 39.5801 111.81 39.381 111.823 39.141C111.926 37.2569 112.308 35.6239 112.969 34.2419C113.681 32.7537 114.587 31.6214 115.687 30.845C116.808 30.0685 118.005 29.6803 119.278 29.6803C120.486 29.6803 121.542 29.993 122.448 30.6185C123.354 31.2224 124.044 32.1067 124.519 33.2714C124.952 34.3339 125.178 35.585 125.198 37.0246C125.201 37.2575 125.011 37.4448 124.778 37.4448H120.843C120.605 37.4448 120.415 37.2494 120.406 37.0114C120.369 36.0052 120.133 35.1899 119.698 34.5655C119.224 33.8537 118.523 33.4978 117.595 33.4978C116.819 33.4978 116.107 33.7459 115.46 34.2419C114.835 34.7164 114.328 35.4174 113.94 36.3448C113.614 37.1481 113.425 38.0871 113.371 39.1617C113.36 39.3937 113.171 39.5801 112.939 39.5801H112.244ZM108.537 30.7207C108.537 30.4856 108.727 30.295 108.963 30.295H112.931C113.167 30.295 113.357 30.4856 113.357 30.7207V46.7894C113.357 47.0246 113.167 47.2152 112.931 47.2152H108.963C108.727 47.2152 108.537 47.0246 108.537 46.7894V30.7207Z" fill="url(#paint3_linear_18_1007)"/>
<path d="M132.464 40.0165C132.19 39.7723 131.755 39.9672 131.755 40.3346V46.7894C131.755 47.0246 131.565 47.2152 131.33 47.2152H127.328C127.093 47.2152 126.903 47.0246 126.903 46.7894V23.5061C126.903 23.271 127.093 23.0804 127.328 23.0804H131.33C131.565 23.0804 131.755 23.271 131.755 23.5061V37.1291C131.755 37.4988 132.194 37.6928 132.468 37.4441L140.207 30.4057C140.285 30.3344 140.388 30.2949 140.493 30.2949H145.816C146.214 30.2949 146.394 30.7932 146.088 31.048L139.681 36.3774C139.636 36.4148 139.584 36.4426 139.528 36.4589L133.244 38.2874C132.828 38.4083 132.837 39.0001 133.256 39.1084L139.226 40.6512C139.287 40.6669 139.344 40.6959 139.392 40.736L146.281 46.462C146.588 46.7167 146.408 47.2152 146.009 47.2152H140.717C140.613 47.2152 140.512 47.1769 140.434 47.1075L132.464 40.0165Z" fill="url(#paint4_linear_18_1007)"/>
<path d="M148.891 25.1561C148.891 24.921 149.081 24.7304 149.316 24.7304H153.285C153.52 24.7304 153.711 24.921 153.711 25.1561V46.7894C153.711 47.0246 153.52 47.2152 153.285 47.2152H149.316C149.081 47.2152 148.891 47.0246 148.891 46.7894V25.1561Z" fill="url(#paint5_linear_18_1007)"/>
<path d="M163.082 29.0708C163.082 28.8356 162.891 28.645 162.656 28.645H155.84C155.605 28.645 155.414 28.4544 155.414 28.2192V25.1561C155.414 24.921 155.605 24.7304 155.84 24.7304H175.144C175.379 24.7304 175.57 24.921 175.57 25.1561V28.2192C175.57 28.4544 175.379 28.645 175.144 28.645H168.328C168.093 28.645 167.902 28.8356 167.902 29.0708V46.7894C167.902 47.0246 167.711 47.2152 167.476 47.2152H163.507C163.272 47.2152 163.082 47.0246 163.082 46.7894V29.0708Z" fill="url(#paint6_linear_18_1007)"/>
<defs>
<linearGradient id="paint0_linear_18_1007" x1="31.8367" y1="-0.993827" x2="31.8367" y2="51.6422" gradientUnits="userSpaceOnUse">
<stop stop-color="#2400FF"/>
<stop offset="0.84" stop-color="#00B3FF"/>
</linearGradient>
<linearGradient id="paint1_linear_18_1007" x1="72.6166" y1="30.295" x2="72.6166" y2="47.2152" gradientUnits="userSpaceOnUse">
<stop stop-color="#2400FF"/>
<stop offset="1" stop-color="#00D1FF"/>
</linearGradient>
<linearGradient id="paint2_linear_18_1007" x1="96.853" y1="29.0656" x2="96.853" y2="47.2152" gradientUnits="userSpaceOnUse">
<stop stop-color="#2400FF"/>
<stop offset="1" stop-color="#00D1FF"/>
</linearGradient>
<linearGradient id="paint3_linear_18_1007" x1="116.868" y1="29.6803" x2="116.868" y2="47.2152" gradientUnits="userSpaceOnUse">
<stop stop-color="#2400FF"/>
<stop offset="1" stop-color="#00D1FF"/>
</linearGradient>
<linearGradient id="paint4_linear_18_1007" x1="137.045" y1="23.0804" x2="137.045" y2="47.2152" gradientUnits="userSpaceOnUse">
<stop stop-color="#2400FF"/>
<stop offset="1" stop-color="#00D1FF"/>
</linearGradient>
<linearGradient id="paint5_linear_18_1007" x1="151.301" y1="24.7304" x2="151.301" y2="47.2152" gradientUnits="userSpaceOnUse">
<stop stop-color="#2400FF"/>
<stop offset="1" stop-color="#00D1FF"/>
</linearGradient>
<linearGradient id="paint6_linear_18_1007" x1="165.492" y1="24.7304" x2="165.492" y2="47.2152" gradientUnits="userSpaceOnUse">
<stop stop-color="#2400FF"/>
<stop offset="1" stop-color="#00D1FF"/>
</linearGradient>
</defs>
</svg>
